<svg xmlns="http://www.w3.org/2000/svg" xmlns:xlink="http://www.w3.org/1999/xlink" width="50" zoomAndPan="magnify" viewBox="0 0 37.5 37.499999" height="50" preserveAspectRatio="xMidYMid meet" version="1.0"><defs><clipPath id="2aca814ec0"><path d="M 2.957031 8.605469 L 34.457031 8.605469 L 34.457031 28.855469 L 2.957031 28.855469 Z M 2.957031 8.605469 " clip-rule="nonzero"/></clipPath></defs><g clip-path="url(#2aca814ec0)"><path fill="#000000" d="M 2.972656 8.605469 L 2.972656 28.855469 L 34.445312 28.855469 L 34.445312 8.605469 Z M 5.21875 10.855469 L 32.195312 10.855469 L 32.195312 26.605469 L 5.21875 26.605469 Z M 7.46875 13.105469 L 7.46875 24.355469 L 10.839844 24.355469 C 12.699219 24.355469 14.210938 22.839844 14.210938 20.980469 L 14.210938 16.480469 C 14.210938 14.617188 12.699219 13.105469 10.839844 13.105469 Z M 18.707031 13.105469 C 17.46875 13.105469 16.460938 14.113281 16.460938 15.355469 L 16.460938 22.105469 C 16.460938 23.34375 17.46875 24.355469 18.707031 24.355469 L 20.957031 24.355469 L 20.957031 22.105469 L 18.707031 22.105469 L 18.707031 19.855469 L 20.957031 19.855469 L 20.957031 17.605469 L 18.707031 17.605469 L 18.707031 15.355469 L 20.957031 15.355469 L 20.957031 13.105469 Z M 22.859375 13.105469 L 25.199219 23.257812 C 25.347656 23.898438 25.917969 24.355469 26.578125 24.355469 C 27.234375 24.355469 27.804688 23.898438 27.953125 23.257812 L 30.296875 13.105469 L 27.988281 13.105469 L 26.578125 19.222656 L 25.164062 13.105469 Z M 9.714844 15.355469 L 10.839844 15.355469 C 11.460938 15.355469 11.964844 15.859375 11.964844 16.480469 L 11.964844 20.980469 C 11.964844 21.601562 11.460938 22.105469 10.839844 22.105469 L 9.714844 22.105469 Z M 9.714844 15.355469 " fill-opacity="1" fill-rule="nonzero"/></g></svg>